<svg width="367" height="295" viewBox="0 0 367 295" fill="none" xmlns="http://www.w3.org/2000/svg">
<g filter="url(#filter0_d_167_30)">
<path d="M264.916 245.977L190.909 263.873L132.482 159.438C110.567 153.043 90.9025 178.425 83.8094 191.916C76.9471 178.308 92.236 153.47 100.738 142.752C94.6732 135.015 79.6513 117.316 68.0836 108.42C56.5158 99.5231 38.9781 110.585 31.6552 117.229C54.3917 56.8341 118.137 90.4962 147.168 114.877C172.289 81.3554 209.74 87.0827 228.318 95.2531L228.461 95.2187C239.148 65.5649 271.096 12.7149 313.385 38.5453L324.616 46.3864C315.922 44.5636 302.865 43.0389 297.123 49.2713C288.091 55.2187 274.655 73.0851 274.827 100.654C288.822 97.5408 320.596 99.2504 335.74 130.995C317.779 121.127 277.61 106.803 260.622 128.452L264.916 245.977Z" fill="#FF0099"/>
</g>
<defs>
<filter id="filter0_d_167_30" x="0.655273" y="0.642334" width="366.085" height="294.23" filterUnits="userSpaceOnUse" color-interpolation-filters="sRGB">
<feFlood flood-opacity="0" result="BackgroundImageFix"/>
<feColorMatrix in="SourceAlpha" type="matrix" values="0 0 0 0 0 0 0 0 0 0 0 0 0 0 0 0 0 0 127 0" result="hardAlpha"/>
<feOffset/>
<feGaussianBlur stdDeviation="15.5"/>
<feComposite in2="hardAlpha" operator="out"/>
<feColorMatrix type="matrix" values="0 0 0 0 0.929412 0 0 0 0 0.0941176 0 0 0 0 1 0 0 0 0.8 0"/>
<feBlend mode="normal" in2="BackgroundImageFix" result="effect1_dropShadow_167_30"/>
<feBlend mode="normal" in="SourceGraphic" in2="effect1_dropShadow_167_30" result="shape"/>
</filter>
</defs>
</svg>
